# xmcd CD database file
#
# Track frame offsets:
#	150
#	20095
#	43205
#	62093
#
# Disc length: 1222 seconds
#
# Revision: 1
# Processed by: cddbd v1.5.1PL2 Copyright (c) Steve Scherf et al.
# Submitted via: CDex 1.51
#
DISCID=3404c404
DTITLE=melody. - see you...
DYEAR=2006
DGENRE=JPop
TTITLE0=see you...
TTITLE1=Close Your Eyes
TTITLE2=see you...(mel funk remix)
TTITLE3=realize(Sugiurumn house mission mix)
EXTD=YEAR: 2006/02/15
EXTT0=
EXTT1=
EXTT2=
EXTT3=
PLAYORDER=
